General

Format                           : MPEG-4
Format profile                   : Base Media
Codec ID                         : isom
File size                        : 68.2 MiB
Duration                         : 4mn 0s
Overall bit rate                 : 2 383 Kbps
Encoded date                     : UTC 2012-02-19 16:59:55
Tagged date                      : UTC 2012-02-19 16:59:55

Video
ID                               : 1
Format                           : AVC
Format/Info                      : Advanced Video Codec
Format profile                   : High@L3.0
Format settings, CABAC           : Yes
Format settings, ReFrames        : 2 frames
Codec ID                         : avc1
Codec ID/Info                    : Advanced Video Coding
Duration                         : 4mn 0s
Bit rate mode                    : Variable
Bit rate                         : 2 427 Kbps
Maximum bit rate                 : 5 700 Kbps
Width                            : 720 pixels
Height                           : 480 pixels
Display aspect ratio             : 16:9
Original display aspect ratio    : 16:9
Frame rate mode                  : Constant
Frame rate                       : 23.976 fps
Standard                         : NTSC
Color space                      : YUV
Chroma subsampling               : 4:2:0
Bit depth                        : 8 bits
Scan type                        : Progressive
Bits/(Pixel*Frame)               : 0.293
Stream size                      : 66.5 MiB (98%)

Audio
ID                               : 2
Format                           : AAC
Format/Info                      : Advanced Audio Codec
Format profile                   : LC
Codec ID                         : 40
Duration                         : 4mn 0s
Bit rate mode                    : Variable
Bit rate                         : 52.3 Kbps
Maximum bit rate                 : 89.1 Kbps
Channel(s)                       : 2 channels
Channel positions                : Front: L R
Sampling rate                    : 44.1 KHz
Compression mode                 : Lossy
Stream size                      : 1.50 MiB (2%)


